STARTFONT 2.1
COMMENT Transformed from SYMBIAN FSC to EPOC BDF format
COMMENT Original font file name: agnsym11.fsc
FONT agnsym11
SIZE 11 72 72
FONTBOUNDINGBOX 13 11 0 -1
STARTPROPERTIES 6
Uid 268435559
MaxNormalCharWidth 16
MaxConsecutiveFillChars 5
FONT_ASCENT 10
FONT_DESCENT 1
COPYRIGHT "Copyright (c) 1999 Symbian Ltd."
ENDPROPERTIES
CHARS 35
STARTCHAR space
ENCODING 32
SWIDTH 273 0
DWIDTH 3 0
BBX 0 0 0 0
BITMAP
ENDCHAR
STARTCHAR hyphenminus
ENCODING 45
SWIDTH 364 0
DWIDTH 4 0
BBX 3 1 0 4
BITMAP
E0
ENDCHAR
STARTCHAR fullstop
ENCODING 46
SWIDTH 273 0
DWIDTH 3 0
BBX 2 2 0 0
BITMAP
C0
C0
ENDCHAR
STARTCHAR slash
ENCODING 47
SWIDTH 545 0
DWIDTH 6 0
BBX 6 6 0 1
BITMAP
04
08
10
20
40
80
ENDCHAR
STARTCHAR digitzero
ENCODING 48
SWIDTH 545 0
DWIDTH 6 0
BBX 5 9 0 0
BITMAP
70
88
88
88
88
88
88
88
70
ENDCHAR
STARTCHAR digitone
ENCODING 49
SWIDTH 545 0
DWIDTH 6 0
BBX 3 9 1 0
BITMAP
40
C0
40
40
40
40
40
40
E0
ENDCHAR
STARTCHAR digittwo
ENCODING 50
SWIDTH 545 0
DWIDTH 6 0
BBX 5 9 0 0
BITMAP
70
88
08
08
10
20
40
80
F8
ENDCHAR
STARTCHAR digitthree
ENCODING 51
SWIDTH 545 0
DWIDTH 6 0
BBX 5 9 0 0
BITMAP
70
88
08
08
30
08
08
88
70
ENDCHAR
STARTCHAR digitfour
ENCODING 52
SWIDTH 545 0
DWIDTH 6 0
BBX 5 9 0 0
BITMAP
10
30
50
50
90
90
F8
10
10
ENDCHAR
STARTCHAR digitfive
ENCODING 53
SWIDTH 545 0
DWIDTH 6 0
BBX 5 9 0 0
BITMAP
F8
80
80
F0
08
08
08
88
70
ENDCHAR
STARTCHAR digitsix
ENCODING 54
SWIDTH 545 0
DWIDTH 6 0
BBX 5 9 0 0
BITMAP
70
88
80
80
F0
88
88
88
70
ENDCHAR
STARTCHAR digitseven
ENCODING 55
SWIDTH 545 0
DWIDTH 6 0
BBX 5 9 0 0
BITMAP
F8
08
08
10
10
20
20
40
40
ENDCHAR
STARTCHAR digiteight
ENCODING 56
SWIDTH 545 0
DWIDTH 6 0
BBX 5 9 0 0
BITMAP
70
88
88
88
70
88
88
88
70
ENDCHAR
STARTCHAR digitnine
ENCODING 57
SWIDTH 545 0
DWIDTH 6 0
BBX 5 9 0 0
BITMAP
70
88
88
88
78
08
08
88
70
ENDCHAR
STARTCHAR colon
ENCODING 58
SWIDTH 273 0
DWIDTH 3 0
BBX 2 5 0 2
BITMAP
C0
C0
00
C0
C0
ENDCHAR
STARTCHAR degreesign
ENCODING 176
SWIDTH 545 0
DWIDTH 6 0
BBX 5 4 0 6
BITMAP
70
D8
D8
70
ENDCHAR
STARTCHAR rightwhitearrow
ENCODING 8680
SWIDTH 1000 0
DWIDTH 11 0
BBX 9 7 1 1
BITMAP
0800
0E00
FB00
8080
FB00
0E00
0800
ENDCHAR
STARTCHAR muchlessthan
ENCODING 8810
SWIDTH 909 0
DWIDTH 10 0
BBX 8 7 1 1
BITMAP
1B
36
6C
D8
6C
36
1B
ENDCHAR
STARTCHAR muchgreaterthan
ENCODING 8811
SWIDTH 909 0
DWIDTH 10 0
BBX 8 7 1 1
BITMAP
D8
6C
36
1B
36
6C
D8
ENDCHAR
STARTCHAR circledone
ENCODING 9312
SWIDTH 1455 0
DWIDTH 16 0
BBX 12 11 2 -1
BITMAP
0F00
30C0
4220
4620
8210
8210
8210
4220
4220
30C0
0F00
ENDCHAR
STARTCHAR circledtwo
ENCODING 9313
SWIDTH 1455 0
DWIDTH 16 0
BBX 12 11 2 -1
BITMAP
0F00
30C0
4620
4920
8110
8210
8410
4F20
4020
30C0
0F00
ENDCHAR
STARTCHAR circledthree
ENCODING 9314
SWIDTH 1455 0
DWIDTH 16 0
BBX 12 11 2 -1
BITMAP
0F00
30C0
4620
4920
8110
8610
8110
4920
4620
30C0
0F00
ENDCHAR
STARTCHAR circledfour
ENCODING 9315
SWIDTH 1455 0
DWIDTH 16 0
BBX 12 11 2 -1
BITMAP
0F00
30C0
4220
4620
8A10
9210
9F90
4220
4220
30C0
0F00
ENDCHAR
STARTCHAR circledfive
ENCODING 9316
SWIDTH 1455 0
DWIDTH 16 0
BBX 12 11 2 -1
BITMAP
0F00
30C0
4F20
4820
8810
8E10
8110
4920
4620
30C0
0F00
ENDCHAR
STARTCHAR circledsix
ENCODING 9317
SWIDTH 1455 0
DWIDTH 16 0
BBX 12 11 2 -1
BITMAP
0F00
30C0
4620
4920
8810
8E10
8910
8920
4620
30C0
0F00
ENDCHAR
STARTCHAR circledseven
ENCODING 9318
SWIDTH 1455 0
DWIDTH 16 0
BBX 12 11 2 -1
BITMAP
0F00
30C0
4F20
4120
8110
8210
8210
4420
4420
30C0
0F00
ENDCHAR
STARTCHAR circledeight
ENCODING 9319
SWIDTH 1455 0
DWIDTH 16 0
BBX 12 11 2 -1
BITMAP
0F00
30C0
4620
4920
8910
8610
8910
4920
4620
30C0
0F00
ENDCHAR
STARTCHAR circlednine
ENCODING 9320
SWIDTH 1455 0
DWIDTH 16 0
BBX 12 11 2 -1
BITMAP
0F00
30C0
4620
4920
8910
8710
8110
4920
4620
30C0
0F00
ENDCHAR
STARTCHAR circledcapitalt
ENCODING 9417
SWIDTH 1455 0
DWIDTH 16 0
BBX 12 11 2 -1
BITMAP
0F00
30C0
4020
4FA0
8210
8210
8210
4220
4220
30C0
0F00
ENDCHAR
STARTCHAR blacksmallsquare
ENCODING 9642
SWIDTH 727 0
DWIDTH 8 0
BBX 4 3 2 3
BITMAP
F0
F0
F0
ENDCHAR
STARTCHAR ballotboxwithx
ENCODING 9746
SWIDTH 1364 0
DWIDTH 15 0
BBX 13 9 1 0
BITMAP
FFF8
8468
8CE8
8FC8
8388
86E8
BC68
9808
FFF8
ENDCHAR
STARTCHAR ballotx
ENCODING 10007
SWIDTH 1000 0
DWIDTH 11 0
BBX 9 7 1 1
BITMAP
1180
3380
3F00
0E00
1B80
F180
6000
ENDCHAR
STARTCHAR flag
ENCODING 63229
SWIDTH 1364 0
DWIDTH 15 0
BBX 11 9 2 0
BITMAP
EC00
7260
43E0
4220
4A20
7620
4620
41C0
4000
ENDCHAR
STARTCHAR anniversarycandle
ENCODING 63230
SWIDTH 909 0
DWIDTH 10 0
BBX 6 10 2 0
BITMAP
10
68
48
70
20
FC
B4
84
84
FC
ENDCHAR
STARTCHAR alarmbell
ENCODING 63231
SWIDTH 1000 0
DWIDTH 11 0
BBX 9 10 1 0
BITMAP
1C00
2200
4100
4100
4100
4100
BE80
F380
B080
7F00
ENDCHAR
ENDFONT
